<mxfile host="app.diagrams.net" agent="Mozilla/5.0 (Windows NT 10.0; Win64; x64) AppleWebKit/537.36 (KHTML, like Gecko) Chrome/130.0.0.0 Safari/537.36" version="24.8.4">
  <diagram name="Page-1" id="KXQdFByNBVpxFLF6cQxC">
    <mxGraphModel dx="1434" dy="772" grid="1" gridSize="10" guides="1" tooltips="1" connect="1" arrows="1" fold="1" page="1" pageScale="1" pageWidth="827" pageHeight="1169" math="0" shadow="0">
      <root>
        <mxCell id="0" />
        <mxCell id="1" parent="0" />
        <mxCell id="8wAcKJ2KfCNN_2pJejDK-2" value="" style="rounded=0;whiteSpace=wrap;html=1;" vertex="1" parent="1">
          <mxGeometry x="220" y="80" width="380" height="530" as="geometry" />
        </mxCell>
        <mxCell id="8wAcKJ2KfCNN_2pJejDK-3" value="User" style="shape=umlActor;verticalLabelPosition=bottom;verticalAlign=top;html=1;outlineConnect=0;" vertex="1" parent="1">
          <mxGeometry x="50" y="290" width="30" height="60" as="geometry" />
        </mxCell>
        <mxCell id="8wAcKJ2KfCNN_2pJejDK-5" value="Admin" style="shape=umlActor;verticalLabelPosition=bottom;verticalAlign=top;html=1;outlineConnect=0;" vertex="1" parent="1">
          <mxGeometry x="780" y="280" width="30" height="60" as="geometry" />
        </mxCell>
        <mxCell id="8wAcKJ2KfCNN_2pJejDK-6" value="Đăng nhập" style="ellipse;whiteSpace=wrap;html=1;" vertex="1" parent="1">
          <mxGeometry x="348.75" y="90" width="157.5" height="40" as="geometry" />
        </mxCell>
        <mxCell id="8wAcKJ2KfCNN_2pJejDK-7" value="Đăng xuất" style="ellipse;whiteSpace=wrap;html=1;" vertex="1" parent="1">
          <mxGeometry x="345" y="560" width="165" height="40" as="geometry" />
        </mxCell>
        <mxCell id="8wAcKJ2KfCNN_2pJejDK-8" value="Xem sản phẩm" style="ellipse;whiteSpace=wrap;html=1;" vertex="1" parent="1">
          <mxGeometry x="240" y="120" width="120" height="50" as="geometry" />
        </mxCell>
        <mxCell id="8wAcKJ2KfCNN_2pJejDK-9" value="Quản lí sản phẩm" style="ellipse;whiteSpace=wrap;html=1;" vertex="1" parent="1">
          <mxGeometry x="460" y="150" width="120" height="50" as="geometry" />
        </mxCell>
        <mxCell id="8wAcKJ2KfCNN_2pJejDK-10" value="Quản lí giỏ hàng" style="ellipse;whiteSpace=wrap;html=1;" vertex="1" parent="1">
          <mxGeometry x="235" y="180" width="130" height="40" as="geometry" />
        </mxCell>
        <mxCell id="8wAcKJ2KfCNN_2pJejDK-11" value="Đánh giá sản phẩm" style="ellipse;whiteSpace=wrap;html=1;" vertex="1" parent="1">
          <mxGeometry x="234" y="290" width="126" height="40" as="geometry" />
        </mxCell>
        <mxCell id="8wAcKJ2KfCNN_2pJejDK-13" value="Quản lí danh mục" style="ellipse;whiteSpace=wrap;html=1;" vertex="1" parent="1">
          <mxGeometry x="460" y="210" width="120" height="50" as="geometry" />
        </mxCell>
        <mxCell id="8wAcKJ2KfCNN_2pJejDK-14" value="Quản lí giảm giá" style="ellipse;whiteSpace=wrap;html=1;" vertex="1" parent="1">
          <mxGeometry x="450" y="270" width="120" height="40" as="geometry" />
        </mxCell>
        <mxCell id="8wAcKJ2KfCNN_2pJejDK-15" value="Quản lí tài khoản" style="ellipse;whiteSpace=wrap;html=1;" vertex="1" parent="1">
          <mxGeometry x="460" y="320" width="120" height="40" as="geometry" />
        </mxCell>
        <mxCell id="8wAcKJ2KfCNN_2pJejDK-16" value="Quản lí giỏ hàng" style="ellipse;whiteSpace=wrap;html=1;" vertex="1" parent="1">
          <mxGeometry x="460" y="375" width="120" height="45" as="geometry" />
        </mxCell>
        <mxCell id="8wAcKJ2KfCNN_2pJejDK-17" value="Quản lí đơn hàng" style="ellipse;whiteSpace=wrap;html=1;" vertex="1" parent="1">
          <mxGeometry x="460" y="430" width="120" height="40" as="geometry" />
        </mxCell>
        <mxCell id="8wAcKJ2KfCNN_2pJejDK-18" value="Quản lí giỏ hàng" style="ellipse;whiteSpace=wrap;html=1;" vertex="1" parent="1">
          <mxGeometry x="240" y="230" width="120" height="40" as="geometry" />
        </mxCell>
        <mxCell id="8wAcKJ2KfCNN_2pJejDK-19" value="Đơn hàng" style="ellipse;whiteSpace=wrap;html=1;" vertex="1" parent="1">
          <mxGeometry x="237" y="340" width="120" height="40" as="geometry" />
        </mxCell>
        <mxCell id="8wAcKJ2KfCNN_2pJejDK-20" value="Đánh giá sản phẩm" style="ellipse;whiteSpace=wrap;html=1;" vertex="1" parent="1">
          <mxGeometry x="235" y="390" width="120" height="40" as="geometry" />
        </mxCell>
        <mxCell id="8wAcKJ2KfCNN_2pJejDK-21" value="Quản lí đánh giá sản phẩm" style="ellipse;whiteSpace=wrap;html=1;" vertex="1" parent="1">
          <mxGeometry x="460" y="480" width="110" height="60" as="geometry" />
        </mxCell>
        <mxCell id="8wAcKJ2KfCNN_2pJejDK-22" value="Tìm kiếm sản phẩm" style="ellipse;whiteSpace=wrap;html=1;" vertex="1" parent="1">
          <mxGeometry x="240" y="440" width="120" height="40" as="geometry" />
        </mxCell>
        <mxCell id="8wAcKJ2KfCNN_2pJejDK-27" value="" style="endArrow=classic;html=1;rounded=0;" edge="1" parent="1" source="8wAcKJ2KfCNN_2pJejDK-3" target="8wAcKJ2KfCNN_2pJejDK-6">
          <mxGeometry width="50" height="50" relative="1" as="geometry">
            <mxPoint x="110" y="320" as="sourcePoint" />
            <mxPoint x="160" y="270" as="targetPoint" />
          </mxGeometry>
        </mxCell>
        <mxCell id="8wAcKJ2KfCNN_2pJejDK-28" value="" style="endArrow=classic;html=1;rounded=0;" edge="1" parent="1" source="8wAcKJ2KfCNN_2pJejDK-3" target="8wAcKJ2KfCNN_2pJejDK-8">
          <mxGeometry width="50" height="50" relative="1" as="geometry">
            <mxPoint x="80" y="370" as="sourcePoint" />
            <mxPoint x="150.71067811865476" y="320" as="targetPoint" />
          </mxGeometry>
        </mxCell>
        <mxCell id="8wAcKJ2KfCNN_2pJejDK-29" value="" style="endArrow=classic;html=1;rounded=0;exitX=1;exitY=0.3333333333333333;exitDx=0;exitDy=0;exitPerimeter=0;" edge="1" parent="1" source="8wAcKJ2KfCNN_2pJejDK-3" target="8wAcKJ2KfCNN_2pJejDK-10">
          <mxGeometry width="50" height="50" relative="1" as="geometry">
            <mxPoint x="70" y="350" as="sourcePoint" />
            <mxPoint x="120" y="300" as="targetPoint" />
          </mxGeometry>
        </mxCell>
        <mxCell id="8wAcKJ2KfCNN_2pJejDK-30" value="" style="endArrow=classic;html=1;rounded=0;" edge="1" parent="1" target="8wAcKJ2KfCNN_2pJejDK-18">
          <mxGeometry width="50" height="50" relative="1" as="geometry">
            <mxPoint x="80" y="310" as="sourcePoint" />
            <mxPoint x="120" y="320" as="targetPoint" />
          </mxGeometry>
        </mxCell>
        <mxCell id="8wAcKJ2KfCNN_2pJejDK-31" value="" style="endArrow=classic;html=1;rounded=0;exitX=1;exitY=0.3333333333333333;exitDx=0;exitDy=0;exitPerimeter=0;" edge="1" parent="1" source="8wAcKJ2KfCNN_2pJejDK-3" target="8wAcKJ2KfCNN_2pJejDK-11">
          <mxGeometry width="50" height="50" relative="1" as="geometry">
            <mxPoint x="120" y="380" as="sourcePoint" />
            <mxPoint x="170" y="330" as="targetPoint" />
          </mxGeometry>
        </mxCell>
        <mxCell id="8wAcKJ2KfCNN_2pJejDK-32" value="" style="endArrow=classic;html=1;rounded=0;exitX=1;exitY=0.3333333333333333;exitDx=0;exitDy=0;exitPerimeter=0;" edge="1" parent="1" source="8wAcKJ2KfCNN_2pJejDK-3" target="8wAcKJ2KfCNN_2pJejDK-19">
          <mxGeometry width="50" height="50" relative="1" as="geometry">
            <mxPoint x="50" y="370" as="sourcePoint" />
            <mxPoint x="100" y="320" as="targetPoint" />
          </mxGeometry>
        </mxCell>
        <mxCell id="8wAcKJ2KfCNN_2pJejDK-33" value="" style="endArrow=classic;html=1;rounded=0;" edge="1" parent="1" target="8wAcKJ2KfCNN_2pJejDK-20">
          <mxGeometry width="50" height="50" relative="1" as="geometry">
            <mxPoint x="80" y="310" as="sourcePoint" />
            <mxPoint x="239.99900791596738" y="506.50117497929955" as="targetPoint" />
          </mxGeometry>
        </mxCell>
        <mxCell id="8wAcKJ2KfCNN_2pJejDK-34" value="" style="endArrow=classic;html=1;rounded=0;" edge="1" parent="1" target="8wAcKJ2KfCNN_2pJejDK-22">
          <mxGeometry width="50" height="50" relative="1" as="geometry">
            <mxPoint x="80" y="310" as="sourcePoint" />
            <mxPoint x="130" y="560" as="targetPoint" />
          </mxGeometry>
        </mxCell>
        <mxCell id="8wAcKJ2KfCNN_2pJejDK-36" value="Đăng kí" style="ellipse;whiteSpace=wrap;html=1;" vertex="1" parent="1">
          <mxGeometry x="228.75" y="490" width="120" height="40" as="geometry" />
        </mxCell>
        <mxCell id="8wAcKJ2KfCNN_2pJejDK-37" value="" style="endArrow=classic;html=1;rounded=0;" edge="1" parent="1" target="8wAcKJ2KfCNN_2pJejDK-36">
          <mxGeometry width="50" height="50" relative="1" as="geometry">
            <mxPoint x="80" y="310" as="sourcePoint" />
            <mxPoint x="50" y="500" as="targetPoint" />
          </mxGeometry>
        </mxCell>
        <mxCell id="8wAcKJ2KfCNN_2pJejDK-38" value="" style="endArrow=classic;html=1;rounded=0;entryX=0;entryY=0;entryDx=0;entryDy=0;" edge="1" parent="1" target="8wAcKJ2KfCNN_2pJejDK-7">
          <mxGeometry width="50" height="50" relative="1" as="geometry">
            <mxPoint x="80" y="310" as="sourcePoint" />
            <mxPoint x="80" y="550" as="targetPoint" />
          </mxGeometry>
        </mxCell>
        <mxCell id="8wAcKJ2KfCNN_2pJejDK-40" value="" style="endArrow=classic;html=1;rounded=0;exitX=0.5;exitY=0.5;exitDx=0;exitDy=0;exitPerimeter=0;" edge="1" parent="1" source="8wAcKJ2KfCNN_2pJejDK-5" target="8wAcKJ2KfCNN_2pJejDK-6">
          <mxGeometry width="50" height="50" relative="1" as="geometry">
            <mxPoint x="750" y="475" as="sourcePoint" />
            <mxPoint x="800" y="425" as="targetPoint" />
          </mxGeometry>
        </mxCell>
        <mxCell id="8wAcKJ2KfCNN_2pJejDK-41" value="" style="endArrow=classic;html=1;rounded=0;exitX=0.5;exitY=0.5;exitDx=0;exitDy=0;exitPerimeter=0;" edge="1" parent="1" source="8wAcKJ2KfCNN_2pJejDK-5" target="8wAcKJ2KfCNN_2pJejDK-9">
          <mxGeometry width="50" height="50" relative="1" as="geometry">
            <mxPoint x="680" y="520" as="sourcePoint" />
            <mxPoint x="730" y="470" as="targetPoint" />
          </mxGeometry>
        </mxCell>
        <mxCell id="8wAcKJ2KfCNN_2pJejDK-42" value="" style="endArrow=classic;html=1;rounded=0;exitX=0.5;exitY=0.5;exitDx=0;exitDy=0;exitPerimeter=0;" edge="1" parent="1" source="8wAcKJ2KfCNN_2pJejDK-5" target="8wAcKJ2KfCNN_2pJejDK-13">
          <mxGeometry width="50" height="50" relative="1" as="geometry">
            <mxPoint x="700" y="530" as="sourcePoint" />
            <mxPoint x="750" y="480" as="targetPoint" />
          </mxGeometry>
        </mxCell>
        <mxCell id="8wAcKJ2KfCNN_2pJejDK-43" value="" style="endArrow=classic;html=1;rounded=0;exitX=0.5;exitY=0.5;exitDx=0;exitDy=0;exitPerimeter=0;" edge="1" parent="1" source="8wAcKJ2KfCNN_2pJejDK-5" target="8wAcKJ2KfCNN_2pJejDK-14">
          <mxGeometry width="50" height="50" relative="1" as="geometry">
            <mxPoint x="660" y="620" as="sourcePoint" />
            <mxPoint x="710" y="570" as="targetPoint" />
          </mxGeometry>
        </mxCell>
        <mxCell id="8wAcKJ2KfCNN_2pJejDK-44" value="" style="endArrow=classic;html=1;rounded=0;exitX=0.5;exitY=0.5;exitDx=0;exitDy=0;exitPerimeter=0;" edge="1" parent="1" source="8wAcKJ2KfCNN_2pJejDK-5" target="8wAcKJ2KfCNN_2pJejDK-15">
          <mxGeometry width="50" height="50" relative="1" as="geometry">
            <mxPoint x="700" y="580" as="sourcePoint" />
            <mxPoint x="750" y="530" as="targetPoint" />
          </mxGeometry>
        </mxCell>
        <mxCell id="8wAcKJ2KfCNN_2pJejDK-45" value="" style="endArrow=classic;html=1;rounded=0;exitX=0.5;exitY=0.5;exitDx=0;exitDy=0;exitPerimeter=0;" edge="1" parent="1" source="8wAcKJ2KfCNN_2pJejDK-5" target="8wAcKJ2KfCNN_2pJejDK-16">
          <mxGeometry width="50" height="50" relative="1" as="geometry">
            <mxPoint x="680" y="600" as="sourcePoint" />
            <mxPoint x="730" y="550" as="targetPoint" />
          </mxGeometry>
        </mxCell>
        <mxCell id="8wAcKJ2KfCNN_2pJejDK-46" value="" style="endArrow=classic;html=1;rounded=0;" edge="1" parent="1" source="8wAcKJ2KfCNN_2pJejDK-5" target="8wAcKJ2KfCNN_2pJejDK-17">
          <mxGeometry width="50" height="50" relative="1" as="geometry">
            <mxPoint x="710" y="590" as="sourcePoint" />
            <mxPoint x="760" y="540" as="targetPoint" />
          </mxGeometry>
        </mxCell>
        <mxCell id="8wAcKJ2KfCNN_2pJejDK-47" value="" style="endArrow=classic;html=1;rounded=0;entryX=0.936;entryY=0.267;entryDx=0;entryDy=0;entryPerimeter=0;" edge="1" parent="1" target="8wAcKJ2KfCNN_2pJejDK-21">
          <mxGeometry width="50" height="50" relative="1" as="geometry">
            <mxPoint x="795" y="310" as="sourcePoint" />
            <mxPoint x="750" y="540" as="targetPoint" />
          </mxGeometry>
        </mxCell>
        <mxCell id="8wAcKJ2KfCNN_2pJejDK-48" value="" style="endArrow=classic;html=1;rounded=0;exitX=0.5;exitY=0.5;exitDx=0;exitDy=0;exitPerimeter=0;entryX=1;entryY=0.5;entryDx=0;entryDy=0;" edge="1" parent="1" source="8wAcKJ2KfCNN_2pJejDK-5" target="8wAcKJ2KfCNN_2pJejDK-7">
          <mxGeometry width="50" height="50" relative="1" as="geometry">
            <mxPoint x="680" y="650" as="sourcePoint" />
            <mxPoint x="730" y="600" as="targetPoint" />
          </mxGeometry>
        </mxCell>
      </root>
    </mxGraphModel>
  </diagram>
</mxfile>
